<svg xmlns="http://www.w3.org/2000/svg" viewBox="0 0 248.19 212.54"><path d="M577.13 540.39a39.74 39.74 0 0 0-2.031.094l-151.03 11.062c-21.862 1.6-38.226 20.579-36.625 42.438l6.25 85.469c1.093 14.928 10.283 27.294 22.969 33.125l10.813 5.75a36.917 36.917 0 0 0 10.5 4.406l1.562 21.625 9.438 8.563s27.906-21.331 39.875-30.47l110.78-3.812c20.565-.708 36.583-17.84 35.875-38.406l-2.969-85.656c-.316-9.198-3.897-17.465-9.625-23.75l-.125-.125c-1.054-1.146-9.24-10.48-14.031-15.688-.026-.028-.068-.066-.094-.094-7.493-9.145-18.942-14.815-31.531-14.53zm.125 4.969a34.54 34.54 0 0 1 35.312 32.125l6.25 85.5c1.405 19.183-12.846 35.658-32.031 37.062l-110.56 8.093-.781.063-.625.5-31 25.625-1.719-23.688-6.344.47c-19.186 1.404-35.658-12.815-37.062-32l-6.25-85.5c-1.405-19.187 12.817-35.69 32-37.095l151.03-11.062c.6-.044 1.188-.08 1.781-.094z" style="color:#000;fill:#4e5562" transform="translate(-387.33 -540.38)"/></svg>